<svg xmlns="http://www.w3.org/2000/svg" width="167" height="167" viewBox="0 0 167 167"><path d="M74.81,148.21a4.33,4.33,0,0,0,.64,1.72,9.33,9.33,0,0,0,3.06,3,9.77,9.77,0,0,0,5.73,1.79,14.53,14.53,0,0,0,11-5.05,9,9,0,0,0,2.21-6.77,21.25,21.25,0,0,0-.61-3q-1.71-7.09-3.44-14.18a3.4,3.4,0,0,0-.09-.33l-1.54.27a33.85,33.85,0,0,1-8.41.38,27.18,27.18,0,0,1-9.45-2.46,26,26,0,0,1-11.75-11A31.19,31.19,0,0,1,58.55,102a32.86,32.86,0,0,1-.4-7.28A31,31,0,0,1,60,86.11a52.59,52.59,0,0,1,6.85-12.8,97.54,97.54,0,0,1,9.18-11c.36-.38.7-.75,1.07-1.11a.5.5,0,0,0,.15-.55c-.6-2.15-1.18-4.31-1.78-6.47a78.08,78.08,0,0,1-2-8.29,43.27,43.27,0,0,1-.66-6.52c0-1.36-.05-2.72,0-4.07A26.36,26.36,0,0,1,74,29,45.34,45.34,0,0,1,80.7,15.26a15.09,15.09,0,0,1,2.79-3.07c.14-.12.3-.21.45-.33a1.11,1.11,0,0,1,1.41,0,9.62,9.62,0,0,1,2.21,1.91A31.48,31.48,0,0,1,92,20.31a42.68,42.68,0,0,1,4,11.56,34.92,34.92,0,0,1,.54,8.78,40.44,40.44,0,0,1-7,20,62.76,62.76,0,0,1-7.8,9.56.43.43,0,0,0-.13.46q1.8,6.81,3.58,13.63c0,.07,0,.14.07.21a19.08,19.08,0,0,1,7.12-.62c6,.53,10.93,3,14.31,8.11a17.45,17.45,0,0,1,2.57,7,24.67,24.67,0,0,1,.24,4.46,21.52,21.52,0,0,1-1.27,6.25,26.89,26.89,0,0,1-5.76,9.74,21.57,21.57,0,0,1-7.12,5.09c-.23.1-.31.2-.24.47,1.32,5.29,2.69,10.56,3.92,15.87a10.84,10.84,0,0,1-3.33,10.92,17.3,17.3,0,0,1-9.08,4.44,16.11,16.11,0,0,1-13.76-3.83,11.75,11.75,0,0,1-4-7.18,8.27,8.27,0,0,1,2.36-7.48,10,10,0,0,1,6.26-3.13,7.53,7.53,0,0,1,8.37,5.89,5.59,5.59,0,0,1-1.17,5.19,9.44,9.44,0,0,1-2.13,1.86,8.42,8.42,0,0,1-5.24,1.46A4.88,4.88,0,0,1,74.81,148.21ZM84.48,117l0,0c-.43-.18-.88-.33-1.29-.54A16.28,16.28,0,0,1,76,109.23,18.79,18.79,0,0,1,74,101.71a23,23,0,0,1,.44-6.87,12.6,12.6,0,0,1,3.7-6.51,14.73,14.73,0,0,1,4.67-2.87c.23-.09.28-.18.23-.42-.85-3.74-1.68-7.47-2.52-11.21-.13-.61-.28-1.23-.44-1.94l-.22.28-2.07,2.19a86.48,86.48,0,0,0-8.15,9.77,39.4,39.4,0,0,0-4.8,8.75A18.45,18.45,0,0,0,63.49,99a26.25,26.25,0,0,0,1,7.73,23.58,23.58,0,0,0,6.28,11A18.72,18.72,0,0,0,83,123a39.46,39.46,0,0,0,8-.41c.51-.07,1-.2,1.55-.31-2.35-9.45-4.69-18.85-7-28.29-.67.21-1.29.38-1.89.6a9,9,0,0,0-5.69,5.47,12.91,12.91,0,0,0-.73,5,12.31,12.31,0,0,0,1.8,6.19,18.81,18.81,0,0,0,3.65,4.16C83.26,115.94,83.87,116.45,84.48,117ZM78.81,59.46c.06,0,.09,0,.1-.06l.59-.63a97.82,97.82,0,0,0,7.75-9.13,34.63,34.63,0,0,0,4.57-8,15.19,15.19,0,0,0,1.1-5.46,32.14,32.14,0,0,0-1.33-8.71,19.49,19.49,0,0,0-2.17-5.18,6.34,6.34,0,0,0-1.63-1.83,1.55,1.55,0,0,0-1.72-.16A11.61,11.61,0,0,0,83.54,22a25.1,25.1,0,0,0-6.37,9,19.37,19.37,0,0,0-1.66,7.72c0,1.7.08,3.41.17,5.11a39.39,39.39,0,0,0,.85,6.31c.51,2.31,1.1,4.59,1.66,6.89C78.38,57.83,78.6,58.63,78.81,59.46ZM94.3,121.82l.24-.1a18.4,18.4,0,0,0,6.11-4.4,17.24,17.24,0,0,0,4.58-11.13,24.15,24.15,0,0,0-.24-4.33,8,8,0,0,0-3-5.35,14.31,14.31,0,0,0-6.9-2.89,22.45,22.45,0,0,0-6-.12l-1.76.24C89.69,103.12,92,112.46,94.3,121.82Z" fill="#efefef"/><path d="M129.46,40.5A64.47,64.47,0,0,0,93,22.15v5.06a60.16,60.16,0,1,1-17-.27v-5A65,65,0,0,0,37.54,132.42,65,65,0,1,0,129.46,40.5Z" fill="#efefef" stroke="#efefef" stroke-miterlimit="10" stroke-width="2"/></svg>