<svg xmlns="http://www.w3.org/2000/svg" width="144" height="144" viewBox="0 0 144 144"><rect width="144" height="144" fill="#7826e7"/><path d="M63.58,130.92a4,4,0,0,0,.59,1.61A8.76,8.76,0,0,0,67,135.35,9.2,9.2,0,0,0,72.39,137a13.6,13.6,0,0,0,10.27-4.72,8.3,8.3,0,0,0,2-6.31,20.08,20.08,0,0,0-.56-2.84q-1.61-6.62-3.22-13.23a2.75,2.75,0,0,0-.08-.3l-1.44.25a32.33,32.33,0,0,1-7.86.35,25.56,25.56,0,0,1-8.83-2.29,24.17,24.17,0,0,1-11-10.31,29,29,0,0,1-3.37-9.78A30.9,30.9,0,0,1,48,81.05,29,29,0,0,1,49.7,73,49,49,0,0,1,56.1,61a91.33,91.33,0,0,1,8.58-10.25c.34-.36.67-.71,1-1.06a.42.42,0,0,0,.12-.46c-.56-2-1.1-4-1.67-6.06a76.39,76.39,0,0,1-1.85-7.74,42.75,42.75,0,0,1-.62-6.09c0-1.26,0-2.53,0-3.79a24.34,24.34,0,0,1,1.09-5.86A42.42,42.42,0,0,1,69.07,6.86,14.52,14.52,0,0,1,71.68,4c.14-.11.29-.19.42-.3a1,1,0,0,1,1.32,0,9.07,9.07,0,0,1,2.07,1.78,29.21,29.21,0,0,1,4.11,6.15,39.77,39.77,0,0,1,3.77,10.79,33.08,33.08,0,0,1,.51,8.19,37.74,37.74,0,0,1-6.5,18.7,58.9,58.9,0,0,1-7.29,8.92.39.39,0,0,0-.12.43Q71.65,65,73.31,71.32l.06.19A18.13,18.13,0,0,1,80,70.93c5.57.5,10.21,2.77,13.37,7.57a16.23,16.23,0,0,1,2.39,6.57A21.37,21.37,0,0,1,96,89.22a20.09,20.09,0,0,1-1.18,5.84,25.14,25.14,0,0,1-5.39,9.09,20,20,0,0,1-6.65,4.75c-.22.09-.29.18-.22.44,1.23,4.93,2.51,9.85,3.66,14.81a10.09,10.09,0,0,1-3.11,10.18,16.09,16.09,0,0,1-8.49,4.15,15.09,15.09,0,0,1-12.85-3.57A11,11,0,0,1,58,128.2a7.71,7.71,0,0,1,2.21-7,9.35,9.35,0,0,1,5.85-2.92,7,7,0,0,1,7.82,5.49,5.22,5.22,0,0,1-1.1,4.85,9.09,9.09,0,0,1-2,1.73,7.92,7.92,0,0,1-4.9,1.36A4.5,4.5,0,0,1,63.58,130.92Zm10-50.53a4.06,4.06,0,0,0-.52.12c-.42.13-.85.25-1.26.4A8.42,8.42,0,0,0,66.5,86a12.2,12.2,0,0,0-.69,4.6,11.56,11.56,0,0,0,2.13,6.48A22,22,0,0,0,71.73,101l.88.73a5.92,5.92,0,0,1-1.24-.45,15.09,15.09,0,0,1-6.67-6.76,17.44,17.44,0,0,1-1.92-7,21.57,21.57,0,0,1,.41-6.41A11.72,11.72,0,0,1,66.65,75,13.6,13.6,0,0,1,71,72.37c.21-.09.27-.17.21-.4-.79-3.48-1.56-7-2.34-10.46-.13-.57-.27-1.14-.42-1.81a3.16,3.16,0,0,1-.2.26l-1.94,2a81.42,81.42,0,0,0-7.55,9,37.14,37.14,0,0,0-4.55,8.26A17.3,17.3,0,0,0,53,85a24.51,24.51,0,0,0,.91,7.22,22,22,0,0,0,5.87,10.25,17.51,17.51,0,0,0,11.43,5A36.83,36.83,0,0,0,78.7,107c.48-.07,1-.19,1.45-.29C78,97.94,75.77,89.18,73.59,80.39ZM67.32,48.14l.63-.68a91.87,91.87,0,0,0,7.25-8.52,32.41,32.41,0,0,0,4.26-7.51,14.11,14.11,0,0,0,1-5.09,29.49,29.49,0,0,0-1-7.3,20.69,20.69,0,0,0-2-5.32,6.37,6.37,0,0,0-1.74-2.05,1.42,1.42,0,0,0-1.6-.15,10.37,10.37,0,0,0-2.37,1.62,23.39,23.39,0,0,0-6,8.4,18.1,18.1,0,0,0-1.55,7.21c0,1.59,0,3.2.17,4.79A42.84,42.84,0,0,0,65,38.47c.47,2.39,1.08,4.74,1.64,7.11C66.86,46.42,67.09,47.24,67.32,48.14Zm14.47,58.15.21-.09a17.26,17.26,0,0,0,5.73-4.12A16.14,16.14,0,0,0,92,91.71a22.25,22.25,0,0,0-.24-4.07A7.43,7.43,0,0,0,89.3,83a12.12,12.12,0,0,0-5.14-2.63,20.1,20.1,0,0,0-7.8-.39l-1,.16C77.47,88.86,79.63,97.57,81.79,106.29Z" fill="#3b3c3e"/><path d="M115.84,28.06A61.52,61.52,0,0,0,79.2,10.32v2.8h1v2.15a57.22,57.22,0,0,1,32.32,97.1A57.23,57.23,0,0,1,31.53,31.43,56.76,56.76,0,0,1,67.1,14.89V10.1A62,62,0,0,0,28.16,115.74a62,62,0,1,0,87.68-87.68Z" fill="#3b3c3e" stroke="#3b3c3e" stroke-miterlimit="10" stroke-width="2"/></svg>