<svg xmlns="http://www.w3.org/2000/svg" width="150" height="150" viewBox="0 0 150 150"><path d="M66.31,139.21a4.43,4.43,0,0,0,.64,1.72,9.33,9.33,0,0,0,3.06,3,9.78,9.78,0,0,0,5.73,1.79,14.53,14.53,0,0,0,11-5.05A9,9,0,0,0,89,133.9a20.45,20.45,0,0,0-.61-3q-1.71-7.09-3.44-14.18a2,2,0,0,0-.09-.33l-1.54.27a33.85,33.85,0,0,1-8.41.38,27.24,27.24,0,0,1-9.45-2.46,26,26,0,0,1-11.75-11A31.25,31.25,0,0,1,50.05,93a32.86,32.86,0,0,1-.4-7.28,31,31,0,0,1,1.85-8.61,52.77,52.77,0,0,1,6.85-12.8,97.47,97.47,0,0,1,9.18-11c.36-.38.7-.75,1.07-1.11a.5.5,0,0,0,.15-.55c-.6-2.15-1.18-4.31-1.78-6.47a78.16,78.16,0,0,1-2-8.29,43.14,43.14,0,0,1-.66-6.52c0-1.36,0-2.72,0-4.07A26.46,26.46,0,0,1,65.5,20,45.44,45.44,0,0,1,72.2,6.26,14.8,14.8,0,0,1,75,3.19c.14-.12.3-.21.45-.33a1.1,1.1,0,0,1,1.41,0,9.59,9.59,0,0,1,2.21,1.91,31.28,31.28,0,0,1,4.44,6.54,42.62,42.62,0,0,1,4,11.56A34.92,34.92,0,0,1,88,31.65a40.41,40.41,0,0,1-7,20,62.27,62.27,0,0,1-7.8,9.56.44.44,0,0,0-.13.46q1.8,6.81,3.58,13.63a.26.26,0,0,0,.07.21,19.22,19.22,0,0,1,7.12-.62c6,.53,10.93,3,14.31,8.11a17.43,17.43,0,0,1,2.57,7,24.67,24.67,0,0,1,.24,4.46,21.59,21.59,0,0,1-1.27,6.25A26.89,26.89,0,0,1,94,110.45a21.43,21.43,0,0,1-7.12,5.09c-.23.1-.31.2-.24.47,1.32,5.29,2.69,10.56,3.92,15.87A10.84,10.84,0,0,1,87.2,142.8a17.3,17.3,0,0,1-9.08,4.44,16.11,16.11,0,0,1-13.76-3.83,11.77,11.77,0,0,1-4-7.18,8.29,8.29,0,0,1,2.36-7.48A10,10,0,0,1,69,125.62a7.52,7.52,0,0,1,8.37,5.89,5.59,5.59,0,0,1-1.17,5.19,9.47,9.47,0,0,1-2.13,1.86A8.42,8.42,0,0,1,68.81,140,4.94,4.94,0,0,1,66.31,139.21ZM76,108h0c-.43-.18-.88-.33-1.29-.54a16.27,16.27,0,0,1-7.19-7.23,18.78,18.78,0,0,1-2-7.52,23,23,0,0,1,.44-6.87,12.66,12.66,0,0,1,3.7-6.51,14.8,14.8,0,0,1,4.67-2.87c.23-.09.28-.18.23-.42-.85-3.74-1.68-7.47-2.52-11.21-.13-.61-.28-1.23-.44-1.94l-.22.28-2.07,2.19a86.48,86.48,0,0,0-8.15,9.77,39.4,39.4,0,0,0-4.8,8.75A18.42,18.42,0,0,0,55,90a26.23,26.23,0,0,0,1,7.73,23.58,23.58,0,0,0,6.28,11A18.71,18.71,0,0,0,74.5,114a39,39,0,0,0,8-.41c.51-.07,1-.2,1.55-.31-2.35-9.45-4.69-18.85-7-28.29-.67.21-1.29.38-1.89.6a9,9,0,0,0-5.69,5.47,12.88,12.88,0,0,0-.73,5,12.31,12.31,0,0,0,1.8,6.19,18.56,18.56,0,0,0,3.65,4.16C74.76,106.94,75.37,107.45,76,108ZM70.31,50.46c.06,0,.09,0,.1-.06l.59-.63a96.32,96.32,0,0,0,7.75-9.13,34.67,34.67,0,0,0,4.57-8,15.28,15.28,0,0,0,1.1-5.46,32.14,32.14,0,0,0-1.33-8.71,19.49,19.49,0,0,0-2.17-5.18,6.34,6.34,0,0,0-1.63-1.83,1.55,1.55,0,0,0-1.72-.16A11.33,11.33,0,0,0,75,13a25.1,25.1,0,0,0-6.37,9A19.37,19.37,0,0,0,67,29.72c0,1.7.08,3.41.17,5.11A39.54,39.54,0,0,0,68,41.14c.51,2.31,1.1,4.59,1.66,6.89C69.88,48.83,70.1,49.63,70.31,50.46ZM85.8,112.82l.24-.1a18.4,18.4,0,0,0,6.11-4.4,17.26,17.26,0,0,0,4.58-11.13,24.09,24.09,0,0,0-.24-4.33,8,8,0,0,0-3-5.35,14.22,14.22,0,0,0-6.9-2.89,22.33,22.33,0,0,0-6-.12l-1.76.24C81.19,94.12,83.5,103.46,85.8,112.82Z" fill="#e2e2e2" stroke="#e2e2e2" stroke-miterlimit="10"/><path d="M121,31.5A64.53,64.53,0,0,0,84.5,13.15v5.06a60.16,60.16,0,1,1-17-.27v-5a65.36,65.36,0,1,0,54.3,19.4C121.53,32.06,121.24,31.78,121,31.5Z" fill="#e2e2e2" stroke="#e2e2e2" stroke-miterlimit="10" stroke-width="3"/></svg>